<svg width="845px" height="583px"
 viewBox="0.00 0.00 845.22 582.82" xmlns="http://www.w3.org/2000/svg" xmlns:xlink="http://www.w3.org/1999/xlink">
<g id="graph0" class="graph" transform=" rotate(0) translate(4 578.82)">
<title>%3</title>
<polygon fill="#ffffff" stroke="transparent" points="-4,4 -4,-578.82 841.2159,-578.82 841.2159,4 -4,4"/>
<text text-anchor="middle" x="418.608" y="-15.62" font-family="Times,serif" font-size="14.00" fill="#000000">ビジネスルール関連図 [2019.7.2]</text>
<g id="clust1" class="cluster">
<title>cluster_wp.safe.convert</title>
<polygon fill="none" stroke="#000000" points="197.4368,-192.82 197.4368,-338.82 455.4368,-338.82 455.4368,-192.82 197.4368,-192.82"/>
<text text-anchor="middle" x="326.4368" y="-323.62" font-family="Times,serif" font-size="14.00" fill="#000000">wp.safe.convert</text>
</g>
<g id="clust2" class="cluster">
<title>cluster_wp.safe.format</title>
<polygon fill="none" stroke="#000000" points="585.4368,-192.82 585.4368,-338.82 755.4368,-338.82 755.4368,-192.82 585.4368,-192.82"/>
<text text-anchor="middle" x="670.4368" y="-323.62" font-family="Times,serif" font-size="14.00" fill="#000000">wp.safe.format</text>
</g>
<g id="clust3" class="cluster">
<title>cluster_wp.unsafe</title>
<polygon fill="none" stroke="#000000" points="15.4368,-264.82 15.4368,-484.82 157.4368,-484.82 157.4368,-264.82 15.4368,-264.82"/>
<text text-anchor="middle" x="86.4368" y="-469.62" font-family="Times,serif" font-size="14.00" fill="#000000">wp.unsafe</text>
</g>
<g id="clust4" class="cluster">
<title>cluster_wp</title>
<polygon fill="none" stroke="#000000" points="85.4368,-492.82 85.4368,-566.82 155.4368,-566.82 155.4368,-492.82 85.4368,-492.82"/>
<text text-anchor="middle" x="120.4368" y="-551.62" font-family="Times,serif" font-size="14.00" fill="#000000">wp</text>
</g>
<g id="clust5" class="cluster">
<title>cluster_wp.safe.core</title>
<polygon fill="none" stroke="#000000" points="479.4368,-38.82 479.4368,-184.82 621.4368,-184.82 621.4368,-38.82 479.4368,-38.82"/>
<text text-anchor="middle" x="550.4368" y="-169.62" font-family="Times,serif" font-size="14.00" fill="#000000">wp.safe.core</text>
</g>
<!-- wp.safe.convert.Compress -->
<g id="node1" class="node">
<title>wp.safe.convert.Compress</title>
<polygon fill="#eedd82" stroke="#000000" points="367.4368,-308.82 295.4368,-308.82 295.4368,-272.82 367.4368,-272.82 367.4368,-308.82"/>
<text text-anchor="middle" x="331.4368" y="-286.62" font-family="Times,serif" font-size="14.00" fill="#000000">Compress</text>
</g>
<!-- wp.safe.convert.Converter -->
<g id="node4" class="node">
<title>wp.safe.convert.Converter</title>
<polygon fill="#eedd82" stroke="#000000" points="277.4163,-236.82 205.4573,-236.82 205.4573,-200.82 277.4163,-200.82 277.4163,-236.82"/>
<text text-anchor="middle" x="241.4368" y="-214.62" font-family="Times,serif" font-size="14.00" fill="#000000">Converter</text>
</g>
<!-- wp.safe.convert.Compress&#45;&gt;wp.safe.convert.Converter -->
<g id="edge10" class="edge">
<title>wp.safe.convert.Compress&#45;&gt;wp.safe.convert.Converter</title>
<path fill="none" stroke="#000000" d="M308.726,-272.6514C297.6408,-263.7832 284.1414,-252.9837 272.1516,-243.3919"/>
<polygon fill="#000000" stroke="#000000" points="274.1355,-240.4968 264.1403,-236.9829 269.7626,-245.9629 274.1355,-240.4968"/>
</g>
<!-- wp.safe.core.Words -->
<g id="node13" class="node">
<title>wp.safe.core.Words</title>
<polygon fill="#eedd82" stroke="#000000" points="541.4368,-154.82 487.4368,-154.82 487.4368,-118.82 541.4368,-118.82 541.4368,-154.82"/>
<text text-anchor="middle" x="514.4368" y="-132.62" font-family="Times,serif" font-size="14.00" fill="#000000">Words</text>
</g>
<!-- wp.safe.convert.Compress&#45;&gt;wp.safe.core.Words -->
<g id="edge12" class="edge">
<title>wp.safe.convert.Compress&#45;&gt;wp.safe.core.Words</title>
<path fill="none" stroke="#000000" d="M353.1125,-272.6323C365.5306,-262.1872 381.3914,-248.8037 395.4368,-236.82 418.2106,-217.3894 423.5475,-212.1145 446.4368,-192.82 458.7879,-182.4087 472.5231,-171.0555 484.3975,-161.31"/>
<polygon fill="#000000" stroke="#000000" points="486.7637,-163.8962 492.2811,-154.8514 482.3275,-158.4813 486.7637,-163.8962"/>
</g>
<!-- wp.safe.core.Word -->
<g id="node15" class="node">
<title>wp.safe.core.Word</title>
<polygon fill="#eedd82" stroke="#000000" points="541.4368,-82.82 487.4368,-82.82 487.4368,-46.82 541.4368,-46.82 541.4368,-82.82"/>
<text text-anchor="middle" x="514.4368" y="-60.62" font-family="Times,serif" font-size="14.00" fill="#000000">Word</text>
</g>
<!-- wp.safe.convert.Compress&#45;&gt;wp.safe.core.Word -->
<g id="edge11" class="edge">
<title>wp.safe.convert.Compress&#45;&gt;wp.safe.core.Word</title>
<path fill="none" stroke="#000000" d="M340.9664,-272.719C351.9797,-252.4576 371.2002,-219.0336 391.4368,-192.82 421.0909,-154.4076 460.7982,-114.8243 486.9737,-90.0421"/>
<polygon fill="#000000" stroke="#000000" points="489.4162,-92.5497 494.3069,-83.1512 484.6227,-87.4485 489.4162,-92.5497"/>
</g>
<!-- wp.safe.convert.Capitalize -->
<g id="node2" class="node">
<title>wp.safe.convert.Capitalize</title>
<polygon fill="#eedd82" stroke="#000000" points="277.6892,-308.82 205.1844,-308.82 205.1844,-272.82 277.6892,-272.82 277.6892,-308.82"/>
<text text-anchor="middle" x="241.4368" y="-286.62" font-family="Times,serif" font-size="14.00" fill="#000000">Capitalize</text>
</g>
<!-- wp.safe.convert.Capitalize&#45;&gt;wp.safe.convert.Converter -->
<g id="edge13" class="edge">
<title>wp.safe.convert.Capitalize&#45;&gt;wp.safe.convert.Converter</title>
<path fill="none" stroke="#000000" d="M241.4368,-272.6514C241.4368,-264.951 241.4368,-255.7944 241.4368,-247.2367"/>
<polygon fill="#000000" stroke="#000000" points="244.9369,-247.2333 241.4368,-237.2333 237.9369,-247.2333 244.9369,-247.2333"/>
</g>
<!-- wp.safe.convert.Capitalize&#45;&gt;wp.safe.core.Words -->
<g id="edge15" class="edge">
<title>wp.safe.convert.Capitalize&#45;&gt;wp.safe.core.Words</title>
<path fill="none" stroke="#000000" d="M267.5242,-272.7769C297.6664,-252.2722 349.0759,-218.3453 395.4368,-192.82 422.3337,-178.0112 453.8084,-163.3084 477.6302,-152.6863"/>
<polygon fill="#000000" stroke="#000000" points="479.2788,-155.7842 487.0087,-148.5386 476.4475,-149.3824 479.2788,-155.7842"/>
</g>
<!-- wp.safe.convert.Capitalize&#45;&gt;wp.safe.core.Word -->
<g id="edge14" class="edge">
<title>wp.safe.convert.Capitalize&#45;&gt;wp.safe.core.Word</title>
<path fill="none" stroke="#000000" d="M256.7079,-272.6794C291.9555,-230.9358 377.2161,-130.7315 393.4368,-118.82 419.1358,-99.9483 452.4757,-85.6825 477.6496,-76.567"/>
<polygon fill="#000000" stroke="#000000" points="478.931,-79.8266 487.206,-73.2104 476.6112,-73.2221 478.931,-79.8266"/>
</g>
<!-- wp.safe.convert.Reverse -->
<g id="node3" class="node">
<title>wp.safe.convert.Reverse</title>
<polygon fill="#eedd82" stroke="#000000" points="447.0267,-308.82 385.8469,-308.82 385.8469,-272.82 447.0267,-272.82 447.0267,-308.82"/>
<text text-anchor="middle" x="416.4368" y="-286.62" font-family="Times,serif" font-size="14.00" fill="#000000">Reverse</text>
</g>
<!-- wp.safe.convert.Reverse&#45;&gt;wp.safe.convert.Converter -->
<g id="edge16" class="edge">
<title>wp.safe.convert.Reverse&#45;&gt;wp.safe.convert.Converter</title>
<path fill="none" stroke="#000000" d="M390.7321,-272.7926C386.0882,-269.9206 381.2044,-267.1371 376.4368,-264.82 347.9021,-250.9521 314.1123,-239.4427 287.476,-231.405"/>
<polygon fill="#000000" stroke="#000000" points="288.2256,-227.9769 277.6436,-228.4968 286.2402,-234.6895 288.2256,-227.9769"/>
</g>
<!-- wp.safe.convert.Reverse&#45;&gt;wp.safe.core.Words -->
<g id="edge17" class="edge">
<title>wp.safe.convert.Reverse&#45;&gt;wp.safe.core.Words</title>
<path fill="none" stroke="#000000" d="M428.0635,-272.5495C445.23,-245.5737 477.4635,-194.921 497.3299,-163.7023"/>
<polygon fill="#000000" stroke="#000000" points="500.4092,-165.3825 502.8252,-155.0668 494.5036,-161.6244 500.4092,-165.3825"/>
</g>
<!-- wp.safe.convert.Converter&#45;&gt;wp.safe.core.Words -->
<g id="edge18" class="edge">
<title>wp.safe.convert.Converter&#45;&gt;wp.safe.core.Words</title>
<path fill="none" stroke="#000000" d="M277.6891,-207.9311C329.6322,-192.3291 424.7392,-163.7622 477.2139,-148.0005"/>
<polygon fill="#000000" stroke="#000000" points="478.5446,-151.2554 487.115,-145.0266 476.5308,-144.5513 478.5446,-151.2554"/>
</g>
<!-- wp.safe.format.Vertical -->
<g id="node5" class="node">
<title>wp.safe.format.Vertical</title>
<polygon fill="#eedd82" stroke="#000000" points="652.9699,-308.82 593.9037,-308.82 593.9037,-272.82 652.9699,-272.82 652.9699,-308.82"/>
<text text-anchor="middle" x="623.4368" y="-286.62" font-family="Times,serif" font-size="14.00" fill="#000000">Vertical</text>
</g>
<!-- wp.safe.format.Formatter -->
<g id="node7" class="node">
<title>wp.safe.format.Formatter</title>
<polygon fill="#eedd82" stroke="#000000" points="747.1441,-236.82 675.7295,-236.82 675.7295,-200.82 747.1441,-200.82 747.1441,-236.82"/>
<text text-anchor="middle" x="711.4368" y="-214.62" font-family="Times,serif" font-size="14.00" fill="#000000">Formatter</text>
</g>
<!-- wp.safe.format.Vertical&#45;&gt;wp.safe.format.Formatter -->
<g id="edge4" class="edge">
<title>wp.safe.format.Vertical&#45;&gt;wp.safe.format.Formatter</title>
<path fill="none" stroke="#000000" d="M645.6429,-272.6514C656.4818,-263.7832 669.6812,-252.9837 681.4046,-243.3919"/>
<polygon fill="#000000" stroke="#000000" points="683.7146,-246.0241 689.2378,-236.9829 679.2819,-240.6064 683.7146,-246.0241"/>
</g>
<!-- wp.safe.format.Vertical&#45;&gt;wp.safe.core.Words -->
<g id="edge3" class="edge">
<title>wp.safe.format.Vertical&#45;&gt;wp.safe.core.Words</title>
<path fill="none" stroke="#000000" d="M595.4109,-272.5851C582.5402,-263.1241 567.8586,-250.6557 557.4368,-236.82 541.0209,-215.0268 529.4446,-186.0092 522.4703,-164.8473"/>
<polygon fill="#000000" stroke="#000000" points="525.7599,-163.6408 519.4152,-155.1558 519.0837,-165.7454 525.7599,-163.6408"/>
</g>
<!-- wp.safe.core.Line -->
<g id="node14" class="node">
<title>wp.safe.core.Line</title>
<polygon fill="#eedd82" stroke="#000000" points="613.4368,-154.82 559.4368,-154.82 559.4368,-118.82 613.4368,-118.82 613.4368,-154.82"/>
<text text-anchor="middle" x="586.4368" y="-132.62" font-family="Times,serif" font-size="14.00" fill="#000000">Line</text>
</g>
<!-- wp.safe.format.Vertical&#45;&gt;wp.safe.core.Line -->
<g id="edge2" class="edge">
<title>wp.safe.format.Vertical&#45;&gt;wp.safe.core.Line</title>
<path fill="none" stroke="#000000" d="M619.0471,-272.5495C612.6494,-245.921 600.7086,-196.2214 593.1876,-164.9177"/>
<polygon fill="#000000" stroke="#000000" points="596.5601,-163.9725 590.8208,-155.0668 589.7538,-165.6078 596.5601,-163.9725"/>
</g>
<!-- wp.safe.format.Horizontal -->
<g id="node6" class="node">
<title>wp.safe.format.Horizontal</title>
<polygon fill="#eedd82" stroke="#000000" points="747.3061,-308.82 671.5676,-308.82 671.5676,-272.82 747.3061,-272.82 747.3061,-308.82"/>
<text text-anchor="middle" x="709.4368" y="-286.62" font-family="Times,serif" font-size="14.00" fill="#000000">Horizontal</text>
</g>
<!-- wp.safe.format.Horizontal&#45;&gt;wp.safe.format.Formatter -->
<g id="edge7" class="edge">
<title>wp.safe.format.Horizontal&#45;&gt;wp.safe.format.Formatter</title>
<path fill="none" stroke="#000000" d="M709.9415,-272.6514C710.1554,-264.951 710.4097,-255.7944 710.6475,-247.2367"/>
<polygon fill="#000000" stroke="#000000" points="714.1462,-247.3267 710.9253,-237.2333 707.1489,-247.1322 714.1462,-247.3267"/>
</g>
<!-- wp.safe.format.Horizontal&#45;&gt;wp.safe.core.Words -->
<g id="edge6" class="edge">
<title>wp.safe.format.Horizontal&#45;&gt;wp.safe.core.Words</title>
<path fill="none" stroke="#000000" d="M679.7878,-272.7393C639.9934,-248.1885 571.8264,-205.0543 550.4368,-184.82 543.6925,-178.44 537.2808,-170.6845 531.7876,-163.2846"/>
<polygon fill="#000000" stroke="#000000" points="534.4457,-160.9831 525.7961,-154.8647 528.7423,-165.0417 534.4457,-160.9831"/>
</g>
<!-- wp.safe.format.Horizontal&#45;&gt;wp.safe.core.Line -->
<g id="edge5" class="edge">
<title>wp.safe.format.Horizontal&#45;&gt;wp.safe.core.Line</title>
<path fill="none" stroke="#000000" d="M694.8441,-272.5495C673.1135,-245.3421 632.1462,-194.0497 607.2691,-162.9027"/>
<polygon fill="#000000" stroke="#000000" points="609.9861,-160.6962 601.0106,-155.0668 604.5166,-165.0648 609.9861,-160.6962"/>
</g>
<!-- wp.safe.format.Formatter&#45;&gt;wp.safe.core.Words -->
<g id="edge9" class="edge">
<title>wp.safe.format.Formatter&#45;&gt;wp.safe.core.Words</title>
<path fill="none" stroke="#000000" d="M675.6822,-211.4301C628.6565,-201.688 551.7729,-185.6721 550.4368,-184.82 542.0521,-179.4728 534.9145,-171.4383 529.26,-163.4645"/>
<polygon fill="#000000" stroke="#000000" points="532.1118,-161.43 523.7174,-154.9659 526.2485,-165.2539 532.1118,-161.43"/>
</g>
<!-- wp.safe.format.Formatter&#45;&gt;wp.safe.core.Line -->
<g id="edge8" class="edge">
<title>wp.safe.format.Formatter&#45;&gt;wp.safe.core.Line</title>
<path fill="none" stroke="#000000" d="M683.6953,-200.6216C665.5256,-188.7023 641.6092,-173.0131 622.0401,-160.1758"/>
<polygon fill="#000000" stroke="#000000" points="623.952,-157.2441 613.6707,-154.6855 620.1124,-163.0972 623.952,-157.2441"/>
</g>
<!-- wp.unsafe.Arg -->
<g id="node8" class="node">
<title>wp.unsafe.Arg</title>
<polygon fill="#eedd82" stroke="#000000" points="149.4368,-308.82 95.4368,-308.82 95.4368,-272.82 149.4368,-272.82 149.4368,-308.82"/>
<text text-anchor="middle" x="122.4368" y="-286.62" font-family="Times,serif" font-size="14.00" fill="#000000">Arg</text>
</g>
<!-- wp.unsafe.Process -->
<g id="node9" class="node">
<title>wp.unsafe.Process</title>
<polygon fill="#eedd82" stroke="#000000" points="149.7097,-454.82 91.1639,-454.82 91.1639,-418.82 149.7097,-418.82 149.7097,-454.82"/>
<text text-anchor="middle" x="120.4368" y="-432.62" font-family="Times,serif" font-size="14.00" fill="#000000">Process</text>
</g>
<!-- wp.unsafe.Process&#45;&gt;wp.safe.convert.Converter -->
<g id="edge19" class="edge">
<title>wp.unsafe.Process&#45;&gt;wp.safe.convert.Converter</title>
<path fill="none" stroke="#000000" d="M91.0853,-419.7752C65.3398,-402.9335 29.7007,-374.5427 14.4368,-338.82 1.514,-308.5764 -6.3821,-290.2809 14.4368,-264.82 36.7679,-237.5098 135.1286,-226.0268 194.8052,-221.5047"/>
<polygon fill="#000000" stroke="#000000" points="195.3881,-224.9719 205.1112,-220.7635 194.8859,-217.99 195.3881,-224.9719"/>
</g>
<!-- wp.unsafe.Process&#45;&gt;wp.safe.format.Formatter -->
<g id="edge22" class="edge">
<title>wp.unsafe.Process&#45;&gt;wp.safe.format.Formatter</title>
<path fill="none" stroke="#000000" d="M149.8694,-434.6553C272.0339,-425.3775 734.7177,-387.2346 776.4368,-338.82 797.9061,-313.9052 791.5502,-294.0308 776.4368,-264.82 771.6226,-255.5152 763.9627,-247.6882 755.5638,-241.2797"/>
<polygon fill="#000000" stroke="#000000" points="757.5614,-238.4057 747.3536,-235.568 753.5638,-244.152 757.5614,-238.4057"/>
</g>
<!-- wp.unsafe.Process&#45;&gt;wp.unsafe.Arg -->
<g id="edge23" class="edge">
<title>wp.unsafe.Process&#45;&gt;wp.unsafe.Arg</title>
<path fill="none" stroke="#000000" d="M105.3228,-418.5968C98.0819,-408.6786 90.1845,-395.8059 86.4368,-382.82 82.0004,-367.4474 81.928,-362.1716 86.4368,-346.82 89.4658,-336.5068 95.0451,-326.2963 100.922,-317.475"/>
<polygon fill="#000000" stroke="#000000" points="103.8857,-319.3462 106.8146,-309.1643 98.1754,-315.2974 103.8857,-319.3462"/>
</g>
<!-- wp.unsafe.Parsed -->
<g id="node10" class="node">
<title>wp.unsafe.Parsed</title>
<polygon fill="#eedd82" stroke="#000000" points="77.4368,-308.82 23.4368,-308.82 23.4368,-272.82 77.4368,-272.82 77.4368,-308.82"/>
<text text-anchor="middle" x="50.4368" y="-286.62" font-family="Times,serif" font-size="14.00" fill="#000000">Parsed</text>
</g>
<!-- wp.unsafe.Process&#45;&gt;wp.unsafe.Parsed -->
<g id="edge25" class="edge">
<title>wp.unsafe.Process&#45;&gt;wp.unsafe.Parsed</title>
<path fill="none" stroke="#000000" d="M103.4425,-418.4967C94.9565,-408.5511 85.1053,-395.6841 78.4368,-382.82 67.9184,-362.529 60.6426,-337.6314 56.1493,-318.8562"/>
<polygon fill="#000000" stroke="#000000" points="59.5065,-317.8343 53.8791,-308.8574 52.6802,-319.3842 59.5065,-317.8343"/>
</g>
<!-- wp.unsafe.Input -->
<g id="node11" class="node">
<title>wp.unsafe.Input</title>
<polygon fill="#eedd82" stroke="#000000" points="149.4368,-382.82 95.4368,-382.82 95.4368,-346.82 149.4368,-346.82 149.4368,-382.82"/>
<text text-anchor="middle" x="122.4368" y="-360.62" font-family="Times,serif" font-size="14.00" fill="#000000">Input</text>
</g>
<!-- wp.unsafe.Process&#45;&gt;wp.unsafe.Input -->
<g id="edge24" class="edge">
<title>wp.unsafe.Process&#45;&gt;wp.unsafe.Input</title>
<path fill="none" stroke="#000000" d="M120.9415,-418.6514C121.1554,-410.951 121.4097,-401.7944 121.6475,-393.2367"/>
<polygon fill="#000000" stroke="#000000" points="125.1462,-393.3267 121.9253,-383.2333 118.1489,-393.1322 125.1462,-393.3267"/>
</g>
<!-- wp.unsafe.Process&#45;&gt;wp.safe.core.Words -->
<g id="edge21" class="edge">
<title>wp.unsafe.Process&#45;&gt;wp.safe.core.Words</title>
<path fill="none" stroke="#000000" d="M149.7165,-435.5447C253.108,-430.8215 600.5834,-413.0192 707.4368,-382.82 749.8991,-370.8192 773.1542,-376.3031 796.4368,-338.82 831.7575,-281.9567 815.8955,-228.784 759.4368,-192.82 739.8364,-180.3346 571.02,-195.6086 550.4368,-184.82 541.3981,-180.0824 534.0052,-171.9412 528.3221,-163.6952"/>
<polygon fill="#000000" stroke="#000000" points="531.2853,-161.8326 523.0214,-155.2025 525.3471,-165.5389 531.2853,-161.8326"/>
</g>
<!-- wp.unsafe.Process&#45;&gt;wp.safe.core.Line -->
<g id="edge20" class="edge">
<title>wp.unsafe.Process&#45;&gt;wp.safe.core.Line</title>
<path fill="none" stroke="#000000" d="M150.0165,-436.5375C260.4915,-435.1445 648.4066,-427.1337 762.4368,-382.82 792.2666,-371.2278 805.3237,-367.5432 819.4368,-338.82 848.4688,-279.7339 842.6154,-237.6848 794.4368,-192.82 769.7413,-169.8232 676.496,-151.42 623.6228,-142.5623"/>
<polygon fill="#000000" stroke="#000000" points="624.0538,-139.0863 613.6188,-140.9195 622.9194,-145.9938 624.0538,-139.0863"/>
</g>
<!-- wp.unsafe.Input&#45;&gt;wp.safe.convert.Compress -->
<g id="edge27" class="edge">
<title>wp.unsafe.Input&#45;&gt;wp.safe.convert.Compress</title>
<path fill="none" stroke="#000000" d="M149.4829,-362.6678C189.744,-359.1082 263.1951,-351.1405 286.4368,-338.82 296.3794,-333.5495 305.3338,-325.227 312.5881,-316.9821"/>
<polygon fill="#000000" stroke="#000000" points="315.3402,-319.146 318.9991,-309.2031 309.9383,-314.6941 315.3402,-319.146"/>
</g>
<!-- wp.unsafe.Input&#45;&gt;wp.safe.convert.Capitalize -->
<g id="edge26" class="edge">
<title>wp.unsafe.Input&#45;&gt;wp.safe.convert.Capitalize</title>
<path fill="none" stroke="#000000" d="M149.4989,-357.4332C162.7362,-353.1359 178.5517,-346.9464 191.4368,-338.82 201.055,-332.754 210.3855,-324.6257 218.3301,-316.7842"/>
<polygon fill="#000000" stroke="#000000" points="221.3134,-318.7364 225.7721,-309.1254 216.2931,-313.8582 221.3134,-318.7364"/>
</g>
<!-- wp.unsafe.Input&#45;&gt;wp.safe.convert.Reverse -->
<g id="edge29" class="edge">
<title>wp.unsafe.Input&#45;&gt;wp.safe.convert.Reverse</title>
<path fill="none" stroke="#000000" d="M149.8485,-363.1844C211.4041,-359.3445 356.773,-349.284 376.4368,-338.82 385.9172,-333.7751 394.0471,-325.4537 400.4533,-317.1443"/>
<polygon fill="#000000" stroke="#000000" points="403.3295,-319.1392 406.2711,-308.9609 397.6242,-315.0832 403.3295,-319.1392"/>
</g>
<!-- wp.unsafe.Input&#45;&gt;wp.safe.convert.Converter -->
<g id="edge28" class="edge">
<title>wp.unsafe.Input&#45;&gt;wp.safe.convert.Converter</title>
<path fill="none" stroke="#000000" d="M149.6068,-347.395C152.7874,-344.7388 155.8241,-341.8607 158.4368,-338.82 182.5322,-310.7786 174.8226,-294.8157 196.4368,-264.82 201.6006,-257.6539 207.867,-250.5265 214.0624,-244.0976"/>
<polygon fill="#000000" stroke="#000000" points="216.6473,-246.4622 221.2324,-236.9109 211.6917,-241.5182 216.6473,-246.4622"/>
</g>
<!-- wp.unsafe.Input&#45;&gt;wp.safe.format.Vertical -->
<g id="edge34" class="edge">
<title>wp.unsafe.Input&#45;&gt;wp.safe.format.Vertical</title>
<path fill="none" stroke="#000000" d="M149.5828,-364.1617C225.8386,-362.1275 440.884,-355.074 509.4368,-338.82 535.4652,-332.6487 563.1549,-321.1183 584.7265,-310.9053"/>
<polygon fill="#000000" stroke="#000000" points="586.398,-313.9848 593.876,-306.4795 583.3497,-307.6834 586.398,-313.9848"/>
</g>
<!-- wp.unsafe.Input&#45;&gt;wp.safe.format.Horizontal -->
<g id="edge33" class="edge">
<title>wp.unsafe.Input&#45;&gt;wp.safe.format.Horizontal</title>
<path fill="none" stroke="#000000" d="M149.7251,-364.6692C252.8728,-363.9411 615.5042,-359.8925 662.4368,-338.82 673.1896,-333.9921 682.7774,-325.4954 690.4441,-316.979"/>
<polygon fill="#000000" stroke="#000000" points="693.1768,-319.1673 696.9233,-309.257 687.8144,-314.6679 693.1768,-319.1673"/>
</g>
<!-- wp.unsafe.Input&#45;&gt;wp.safe.format.Formatter -->
<g id="edge32" class="edge">
<title>wp.unsafe.Input&#45;&gt;wp.safe.format.Formatter</title>
<path fill="none" stroke="#000000" d="M149.4666,-364.7429C267.784,-364.2752 735.1251,-361.0237 756.4368,-338.82 779.2113,-315.0924 768.8557,-295.2741 756.4368,-264.82 753.352,-257.2553 748.3578,-250.259 742.7968,-244.1235"/>
<polygon fill="#000000" stroke="#000000" points="745.083,-241.4589 735.5507,-236.8344 740.1186,-246.394 745.083,-241.4589"/>
</g>
<!-- wp.unsafe.Input&#45;&gt;wp.unsafe.Arg -->
<g id="edge35" class="edge">
<title>wp.unsafe.Input&#45;&gt;wp.unsafe.Arg</title>
<path fill="none" stroke="#000000" d="M122.4368,-346.5279C122.4368,-338.2836 122.4368,-328.3576 122.4368,-319.1823"/>
<polygon fill="#000000" stroke="#000000" points="125.9369,-318.9017 122.4368,-308.9018 118.9369,-318.9018 125.9369,-318.9017"/>
</g>
<!-- wp.unsafe.Input&#45;&gt;wp.unsafe.Parsed -->
<g id="edge36" class="edge">
<title>wp.unsafe.Input&#45;&gt;wp.unsafe.Parsed</title>
<path fill="none" stroke="#000000" d="M95.3627,-346.6551C92.2362,-344.1589 89.187,-341.5211 86.4368,-338.82 79.9201,-332.4197 73.644,-324.7723 68.2082,-317.4831"/>
<polygon fill="#000000" stroke="#000000" points="70.9257,-315.2669 62.249,-309.1869 65.2404,-319.3507 70.9257,-315.2669"/>
</g>
<!-- wp.unsafe.Input&#45;&gt;wp.safe.core.Words -->
<g id="edge31" class="edge">
<title>wp.unsafe.Input&#45;&gt;wp.safe.core.Words</title>
<path fill="none" stroke="#000000" d="M149.6812,-364.4927C225.6422,-363.3362 435.7807,-358.3833 459.4368,-338.82 511.188,-296.0225 516.8873,-209.7787 516.0521,-165.0961"/>
<polygon fill="#000000" stroke="#000000" points="519.5454,-164.8245 515.7344,-154.9388 512.5489,-165.0434 519.5454,-164.8245"/>
</g>
<!-- wp.unsafe.Input&#45;&gt;wp.safe.core.Word -->
<g id="edge30" class="edge">
<title>wp.unsafe.Input&#45;&gt;wp.safe.core.Word</title>
<path fill="none" stroke="#000000" d="M95.1911,-362.0694C66.5573,-358.5498 24.313,-351.3559 14.4368,-338.82 -5.9164,-312.9855 -3.2665,-292.5378 14.4368,-264.82 67.3403,-181.9899 370.6001,-100.3124 477.305,-73.7638"/>
<polygon fill="#000000" stroke="#000000" points="478.4251,-77.0924 487.2944,-71.297 476.7469,-70.2965 478.4251,-77.0924"/>
</g>
<!-- wp.Main -->
<g id="node12" class="node">
<title>wp.Main</title>
<polygon fill="#eedd82" stroke="#000000" points="147.4368,-536.82 93.4368,-536.82 93.4368,-500.82 147.4368,-500.82 147.4368,-536.82"/>
<text text-anchor="middle" x="120.4368" y="-514.62" font-family="Times,serif" font-size="14.00" fill="#000000">Main</text>
</g>
<!-- wp.Main&#45;&gt;wp.unsafe.Process -->
<g id="edge37" class="edge">
<title>wp.Main&#45;&gt;wp.unsafe.Process</title>
<path fill="none" stroke="#000000" d="M120.4368,-500.6216C120.4368,-490.2177 120.4368,-476.9416 120.4368,-465.1968"/>
<polygon fill="#000000" stroke="#000000" points="123.9369,-464.9676 120.4368,-454.9676 116.9369,-464.9677 123.9369,-464.9676"/>
</g>
<!-- wp.safe.core.Words&#45;&gt;wp.safe.core.Word -->
<g id="edge1" class="edge">
<title>wp.safe.core.Words&#45;&gt;wp.safe.core.Word</title>
<path fill="none" stroke="#000000" d="M514.4368,-118.6514C514.4368,-110.951 514.4368,-101.7944 514.4368,-93.2367"/>
<polygon fill="#000000" stroke="#000000" points="517.9369,-93.2333 514.4368,-83.2333 510.9369,-93.2333 517.9369,-93.2333"/>
</g>
</g>
</svg>
